<?xml version="1.0" encoding="UTF-8" standalone="no"?>
<svg
   xmlns:dc="http://purl.org/dc/elements/1.1/"
   xmlns:cc="http://creativecommons.org/ns#"
   xmlns:rdf="http://www.w3.org/1999/02/22-rdf-syntax-ns#"
   xmlns:svg="http://www.w3.org/2000/svg"
   xmlns="http://www.w3.org/2000/svg"
   xmlns:sodipodi="http://sodipodi.sourceforge.net/DTD/sodipodi-0.dtd"
   xmlns:inkscape="http://www.inkscape.org/namespaces/inkscape"
   sodipodi:docname="SynopticValve.svg"
   inkscape:version="1.0 (4035a4fb49, 2020-05-01)"
   id="svg2091"
   version="1.1"
   viewBox="0 0 1080 620"
   height="620mm"
   width="1080mm">
  <defs
     id="defs2085" />
  <sodipodi:namedview
     inkscape:window-maximized="0"
     inkscape:window-y="0"
     inkscape:window-x="168"
     inkscape:window-height="872"
     inkscape:window-width="1305"
     showgrid="false"
     inkscape:document-rotation="0"
     inkscape:current-layer="layer1"
     inkscape:document-units="mm"
     inkscape:cy="2585.6995"
     inkscape:cx="1760.6728"
     inkscape:zoom="0.0875"
     inkscape:pageshadow="2"
     inkscape:pageopacity="0.0"
     borderopacity="1.0"
     bordercolor="#666666"
     pagecolor="#ffffff"
     id="base" />
  <metadata
     id="metadata2088">
    <rdf:RDF>
      <cc:Work
         rdf:about="">
        <dc:format>image/svg+xml</dc:format>
        <dc:type
           rdf:resource="http://purl.org/dc/dcmitype/StillImage" />
        <dc:title></dc:title>
      </cc:Work>
    </rdf:RDF>
  </metadata>
  <g
     id="layer1"
     inkscape:groupmode="layer"
     inkscape:label="Livello 1">
    <g
       id="g10235"
       transform="matrix(17.901596,0,0,17.28959,-353.8179,-2548.1108)"
       style="fill:none;stroke:#1a171b;stroke-opacity:1">
      <path
         id="path10233"
         d="m 75.085,149.80422 c -2.066,-0.856 -4.481,-0.423 -6.096,1.07 L 50,163.61322 31.01,150.87122 c -1.616,-1.495 -4.043,-1.927 -6.108,-1.06 -2.116,0.9 -3.483,2.968 -3.483,5.268 v 20.68499 c 0,2.299 1.367,4.366 3.495,5.271 0.712,0.296 1.46,0.446 2.223,0.446 1.289,0 2.545,-0.415 3.86,-1.282 l 19.01,-12.967 18.983,12.736 c 1.056,0.977 2.425,1.512 3.873,1.512 0.769,0 1.519,-0.151 2.235,-0.452 2.116,-0.9 3.483,-2.968 3.483,-5.268 v -20.68399 c 10e-4,-2.299 -1.367,-4.366 -3.496,-5.272 z m -45.759,27.90199 c -0.812,0.535 -1.487,0.774 -2.189,0.774 -0.366,0 -0.727,-0.073 -1.061,-0.211 -1.007,-0.428 -1.657,-1.412 -1.657,-2.505 v -20.68499 c 0,-1.095 0.65,-2.079 1.651,-2.505 0.34,-0.143 0.7,-0.215 1.067,-0.215 0.711,0 1.381,0.271 1.887,0.763 0.065,0.063 0.135,0.12 0.21,0.17 l 18.089,12.13699 z m 46.256,-1.946 c 0,1.095 -0.65,2.079 -1.651,2.505 -0.998,0.42 -2.187,0.199 -2.955,-0.548 -0.065,-0.063 -0.135,-0.12 -0.21,-0.17 l -18.074,-12.128 18.073,-12.12399 c 0.075,-0.05 0.146,-0.107 0.21,-0.17 0.77,-0.749 1.965,-0.962 2.948,-0.555 1.007,0.429 1.658,1.412 1.658,2.505 v 20.68499 z"
         style="fill:none;stroke:#1a171b;stroke-opacity:1" />
    </g>
  </g>
</svg>
